<svg xmlns="http://www.w3.org/2000/svg" fill="#838383" height="48px" viewBox="0 0 24 24" width="48px"  xmlns:xlink="http://www.w3.org/1999/xlink"><defs id="svgEditorDefs"><polygon id="svgEditorShapeDefs" fill="khaki" stroke="black" style="vector-effect: non-scaling-stroke; stroke-width: 1px;"/></defs><rect id="svgEditorBackground" x="0" y="0" width="24" height="24" style="fill: none; stroke: none;"/>
    <path d="M0 0h24v24H0z" fill="none"/>
    <path d="M12.65,10c-0.8200000000000003,-2.33,-3.040000000000001,-4,-5.65,-4c-3.3099999999999996,0,-6,2.6900000000000013,-6,6s2.6900000000000004,6,6,6c2.6099999999999994,0,4.83,-1.6700000000000017,5.65,-4h4.35v4h4v-4h2v-4h-10.35ZM7,14c-1.0999999999999996,0,-2,-0.9000000000000004,-2,-2s0.9000000000000004,-2,2,-2s2,0.9000000000000004,2,2s-0.9000000000000004,2,-2,2Z"/>
<path d="M164.51484587332126,-14.68510576130431c-3.201999999999998,-2.8130000000000006,-8.105999999999995,-2.455,-11.119,0.5579999999999998l-34.179,34.205l-34.337,-34.362c-3.093,-3.0920000000000005,-8.108,-3.0920000000000005,-11.201,0l-0.11299999999999956,0.11299999999999956c-3.093,3.093,-3.093,8.107,0,11.201l34.341,34.366l-34.34,34.366c-3.093,3.0930000000000035,-3.093,8.108000000000004,0,11.201000000000008l0.11299999999999956,0.11299999999999956c3.093,3.0930000000000035,8.107,3.0930000000000035,11.201,0l34.337,-34.363l34.17900000000001,34.205c3.0130000000000052,3.0130000000000052,7.917000000000002,3.3700000000000045,11.119,0.5580000000000069c3.507000000000005,-3.081000000000003,3.6370000000000005,-8.429000000000002,0.38800000000000534,-11.677999999999997l-34.37899999999999,-34.403l34.37700000000001,-34.404c3.25,-3.2489999999999988,3.1200000000000045,-8.596,-0.38800000000000534,-11.677Z" stroke="firebrick" id="e137_shape" style="vector-effect: non-scaling-stroke; stroke-width: 1px;" transform="matrix(0.153657 0 0 0.153657 -6.57271 7.57044)" fill="brown"/></svg>