<?xml version="1.0" encoding="UTF-8" standalone="no"?>
<svg
   xmlns:dc="http://purl.org/dc/elements/1.1/"
   xmlns:cc="http://creativecommons.org/ns#"
   xmlns:rdf="http://www.w3.org/1999/02/22-rdf-syntax-ns#"
   xmlns:svg="http://www.w3.org/2000/svg"
   xmlns="http://www.w3.org/2000/svg"
   xmlns:sodipodi="http://sodipodi.sourceforge.net/DTD/sodipodi-0.dtd"
   xmlns:inkscape="http://www.inkscape.org/namespaces/inkscape"
   height="106"
   viewBox="0 0 64 106"
   width="64"
   id="svg2"
   version="1.1"
   inkscape:version="0.91 r13725"
   sodipodi:docname="masterkey_password.svg">
  <metadata
     id="metadata18">
    <rdf:RDF>
      <cc:Work
         rdf:about="">
        <dc:format>image/svg+xml</dc:format>
        <dc:type
           rdf:resource="http://purl.org/dc/dcmitype/StillImage" />
      </cc:Work>
    </rdf:RDF>
  </metadata>
  <defs
     id="defs16" />
  <sodipodi:namedview
     pagecolor="#ffffff"
     bordercolor="#666666"
     borderopacity="1"
     objecttolerance="10"
     gridtolerance="10"
     guidetolerance="10"
     inkscape:pageopacity="0"
     inkscape:pageshadow="2"
     inkscape:window-width="1535"
     inkscape:window-height="1176"
     id="namedview14"
     showgrid="false"
     inkscape:zoom="6.2972528"
     inkscape:cx="-0.97567506"
     inkscape:cy="50.523714"
     inkscape:window-x="65"
     inkscape:window-y="24"
     inkscape:window-maximized="1"
     inkscape:current-layer="svg2" />
  <path
     d="M0 0h64v106H0z"
     fill="none"
     id="path4" />
  <path
     fill="#ea8b3c"
     d="M12.65 40C11.83 37.67 9.61 36 7 36c-3.31 0 -6 2.69 -6 6s2.69 6 6 6c2.61 0 4.83 -1.67 5.65 -4H17v4h4v-4h2v-4H12.65zM7 44c-1.1 0 -2 -0.9 -2 -2s0.9 -2 2 -2 2 0.9 2 2 -0.9 2 -2 2z"
     id="path6"
     style="fill:#000000;fill-opacity:1" />
  <text
     x="-0.23601787"
     y="26.128784"
     font-weight="bold"
     font-size="8"
     id="text8"
     style="font-weight:bold;font-size:8px;font-family:Verdana">`pass-</text>
  <text
     x="-0.23601787"
     y="34.128784"
     font-weight="bold"
     font-size="8"
     style="font-weight:bold;font-size:8px;font-family:Verdana"
     id="text4137">word´</text>
  <path
     d="M20 62l-1.41 -1.41L13 66.17V54h-2v12.17l-5.58 -5.59L4 62l8 8 8 -8z"
     fill="#838383"
     id="path10" />
  <path
     fill="#ea8b3c"
     d="M12.65 80C11.83 77.67 9.61 76 7 76c-3.31 0 -6 2.69 -6 6s2.69 6 6 6c2.61 0 4.83 -1.67 5.65 -4H17v4h4v-4h2v-4H12.65zM7 84c-1.1 0 -2 -0.9 -2 -2s0.9 -2 2 -2 2 0.9 2 2 -0.9 2 -2 2z"
     id="path12"
     style="fill:#ff2a2a" />
</svg>
