<svg  height="106" viewBox="0 0 64 106" width="64" xmlns="http://www.w3.org/2000/svg">
    <path d="M0 0h64v106H0z" fill="none"/>
    
<path d="M15 9H9v6h6V9zm-2 4h-2v-2h2v2zm8-2V9h-2V7c0-1.1-.9-2-2-2h-2V3h-2v2h-2V3H9v2H7c-1.1 0-2 .9-2 2v2H3v2h2v2H3v2h2v2c0 1.1.9 2 2 2h2v2h2v-2h2v2h2v-2h2c1.1 0 2-.9 2-2v-2h2v-2h-2v-2h2zm-4 6H7V7h10v10z" transform="translate(0,25)"/>


<text x="-5" y="22" font-family="Verdana" font-weight="bold" font-size="8">
    TPM
  </text>


    <path d="M20 62l-1.41 -1.41L13 66.17V54h-2v12.17l-5.58 -5.59L4 62l8 8 8 -8z" fill="#838383"/>
    <path fill="#ea8b3c" d="M12.65 80C11.83 77.67 9.61 76 7 76c-3.31 0 -6 2.69 -6 6s2.69 6 6 6c2.61 0 4.83 -1.67 5.65 -4H17v4h4v-4h2v-4H12.65zM7 84c-1.1 0 -2 -0.9 -2 -2s0.9 -2 2 -2 2 0.9 2 2 -0.9 2 -2 2z"/>

</svg>