<?xml version="1.0" encoding="UTF-8" standalone="no"?>
<svg
   xmlns:dc="http://purl.org/dc/elements/1.1/"
   xmlns:cc="http://creativecommons.org/ns#"
   xmlns:rdf="http://www.w3.org/1999/02/22-rdf-syntax-ns#"
   xmlns:svg="http://www.w3.org/2000/svg"
   xmlns="http://www.w3.org/2000/svg"
   xmlns:sodipodi="http://sodipodi.sourceforge.net/DTD/sodipodi-0.dtd"
   xmlns:inkscape="http://www.inkscape.org/namespaces/inkscape"
   height="106"
   viewBox="0 0 64 106"
   width="64"
   id="svg2"
   version="1.1"
   inkscape:version="0.91 r13725"
   sodipodi:docname="masterkey_TPM.svg">
  <metadata
     id="metadata18">
    <rdf:RDF>
      <cc:Work
         rdf:about="">
        <dc:format>image/svg+xml</dc:format>
        <dc:type
           rdf:resource="http://purl.org/dc/dcmitype/StillImage" />
      </cc:Work>
    </rdf:RDF>
  </metadata>
  <defs
     id="defs16" />
  <sodipodi:namedview
     pagecolor="#ffffff"
     bordercolor="#666666"
     borderopacity="1"
     objecttolerance="10"
     gridtolerance="10"
     guidetolerance="10"
     inkscape:pageopacity="0"
     inkscape:pageshadow="2"
     inkscape:window-width="1246"
     inkscape:window-height="1391"
     id="namedview14"
     showgrid="false"
     inkscape:zoom="6.2972528"
     inkscape:cx="-0.91546551"
     inkscape:cy="52.770648"
     inkscape:window-x="75"
     inkscape:window-y="24"
     inkscape:window-maximized="0"
     inkscape:current-layer="svg2" />
  <rect
     style="fill:#ffffff;fill-opacity:1;stroke:none;stroke-width:0.69999999;stroke-miterlimit:4;stroke-dasharray:none"
     id="rect4139"
     width="27.313498"
     height="5.0815811"
     x="3.8111858"
     y="81.703697" />
  <path
     d="M0 0h64v106H0z"
     fill="none"
     id="path4" />
  <path
     d="m 24.143587,32.630835 c -0.82,-2.33 -3.04,-4 -5.65,-4 -3.31,0 -6,2.69 -6,6 0,3.31 2.69,6 6,6 2.61,0 4.83,-1.67 5.65,-4 l 4.35,0 0,4 4,0 0,-4 2,0 0,-4 -10.35,0 z m -5.65,4 c -1.1,0 -2,-0.9 -2,-2 0,-1.1 0.9,-2 2,-2 1.1,0 2,0.9 2,2 0,1.1 -0.9,2 -2,2 z"
     id="path6"
     style="fill:#000000;fill-opacity:1"
     inkscape:connector-curvature="0" />
  <path
     d="M 20.65,82 C 19.83,79.67 17.61,78 15,78 c -3.31,0 -6,2.69 -6,6 0,3.31 2.69,6 6,6 2.61,0 4.83,-1.67 5.65,-4 l 4.35,0 0,4 4,0 0,-4 2,0 0,-4 -10.35,0 z M 15,86 c -1.1,0 -2,-0.9 -2,-2 0,-1.1 0.9,-2 2,-2 1.1,0 2,0.9 2,2 0,1.1 -0.9,2 -2,2 z"
     id="path12"
     style="fill:#ff2a2a"
     inkscape:connector-curvature="0" />
  <path
     inkscape:connector-curvature="0"
     d="m 20.821278,32.790801 c 28.811343,50.456857 14.405671,25.228429 0,0 z m 24.23465,0 0,-4.356631 -4.84693,0 0,-4.35663 c 0,-2.396147 -2.181118,-4.35663 -4.84693,-4.35663 l -4.84693,0 0,-4.356631 -4.84693,0 0,4.356631 -4.84693,0 0,-4.356631 -4.846931,0 0,4.356631 -4.84693,0 c -2.6658109,0 -4.8469299,1.960483 -4.8469299,4.35663 l 0,4.35663 -4.84693,0 0,4.356631 4.84693,0 0,4.35663 -4.84693,0 0,4.356631 4.84693,0 0,4.35663 c 0,2.396147 2.181119,4.35663 4.8469299,4.35663 l 4.84693,0 0,4.356631 4.846931,0 0,-4.356631 4.84693,0 0,4.356631 4.84693,0 0,-4.356631 4.84693,0 c 2.665812,0 4.84693,-1.960483 4.84693,-4.35663 l 0,-4.35663 4.84693,0 0,-4.356631 -4.84693,0 0,-4.35663 z m -9.69386,13.069891 -24.234651,0 0,-21.783152 24.234651,0 z"
     id="path6-3"
     sodipodi:nodetypes="cccccssccccccccssccccccccssccccccccssccccccccccc"
     style="fill:#4d4d4d" />
  <text
     xml:space="preserve"
     style="font-style:normal;font-weight:normal;font-size:40px;line-height:125%;font-family:sans-serif;letter-spacing:0px;word-spacing:0px;fill:#000000;fill-opacity:1;stroke:none;stroke-width:1px;stroke-linecap:butt;stroke-linejoin:miter;stroke-opacity:1"
     x="6.4120064"
     y="12.62595"
     id="text4143"
     sodipodi:linespacing="125%"><tspan
       sodipodi:role="line"
       id="tspan4145"
       x="6.4120064"
       y="12.62595"
       style="font-style:normal;font-variant:normal;font-weight:bold;font-stretch:normal;font-size:16.25px;font-family:sans-serif;-inkscape-font-specification:'sans-serif Bold'">TPM</tspan></text>
  <path
     style="fill:#b3b3b3;fill-rule:evenodd;stroke:#808080;stroke-width:0.69999999;stroke-linecap:butt;stroke-linejoin:miter;stroke-miterlimit:4;stroke-dasharray:none;stroke-opacity:1"
     d="m 23.046243,55.080098 0.0794,25.804903"
     id="path3346"
     inkscape:connector-curvature="0" />
</svg>
