<svg xmlns="http://www.w3.org/2000/svg" fill="#e6e6e6" height="48px" viewBox="0 0 24 24" width="48px"  xmlns:xlink="http://www.w3.org/1999/xlink"><defs id="svgEditorDefs"><polygon id="svgEditorShapeDefs" fill="khaki" stroke="black" style="vector-effect: non-scaling-stroke; stroke-width: 1px;"/></defs><rect id="svgEditorBackground" x="0" y="0" width="24" height="24" style="fill: none; stroke: none;"/>
    <path d="M0 0h24v24H0z" fill="none"/>
    <path d="M16 1H4c-1.1 0-2 .9-2 2v14h2V3h12V1zm3 4H8c-1.1 0-2 .9-2 2v14c0 1.1.9 2 2 2h11c1.1 0 2-.9 2-2V7c0-1.1-.9-2-2-2zm0 16H8V7h11v14z"/>
<path d="M109.269,17.919c-3.201999999999998,-2.8130000000000006,-8.105999999999995,-2.455,-11.119,0.5579999999999998l-34.179,34.205l-34.337,-34.362c-3.093,-3.0920000000000005,-8.108,-3.0920000000000005,-11.201,0l-0.11299999999999955,0.11299999999999955c-3.093,3.093,-3.093,8.107,0,11.201l34.341,34.366l-34.34,34.366c-3.093,3.0930000000000035,-3.093,8.108000000000004,0,11.201000000000008l0.11299999999999955,0.11299999999999955c3.093,3.0930000000000035,8.107,3.0930000000000035,11.201,0l34.337,-34.363l34.17900000000001,34.205c3.0130000000000052,3.0130000000000052,7.917000000000002,3.3700000000000045,11.119,0.5580000000000069c3.507000000000005,-3.081000000000003,3.6370000000000005,-8.429000000000002,0.38800000000000523,-11.677999999999997l-34.37899999999999,-34.403l34.37700000000001,-34.404c3.25,-3.2489999999999988,3.1200000000000045,-8.596,-0.38800000000000523,-11.677Z" stroke="firebrick" id="e1_shape" style="vector-effect: non-scaling-stroke; stroke-width: 1px;" fill="firebrick" transform="matrix(0.216441 0 0 0.216441 -1.53022 -1.72341)"/></svg>